<?xml version="1.0" encoding="UTF-8" standalone="no"?>
<!-- Created with Inkscape (http://www.inkscape.org/) -->

<svg
   version="1.1"
   id="svg2"
   width="76.800003"
   height="76.800003"
   viewBox="0 0 76.800003 76.800003"
   sodipodi:docname="finances.jpg"
   inkscape:version="1.1.1 (eb90963e84, 2021-10-02)"
   xmlns:inkscape="http://www.inkscape.org/namespaces/inkscape"
   xmlns:sodipodi="http://sodipodi.sourceforge.net/DTD/sodipodi-0.dtd"
   xmlns="http://www.w3.org/2000/svg"
   xmlns:svg="http://www.w3.org/2000/svg">
  <defs
     id="defs6" />
  <sodipodi:namedview
     id="namedview4"
     pagecolor="#ffffff"
     bordercolor="#cccccc"
     borderopacity="1"
     inkscape:pageshadow="0"
     inkscape:pageopacity="1"
     inkscape:pagecheckerboard="0"
     showgrid="false"
     inkscape:zoom="2.4533488"
     inkscape:cx="5.7064857"
     inkscape:cy="17.934669"
     inkscape:window-width="1366"
     inkscape:window-height="668"
     inkscape:window-x="0"
     inkscape:window-y="27"
     inkscape:window-maximized="1"
     inkscape:current-layer="layer1" />
  <g
     inkscape:groupmode="layer"
     id="layer1"
     inkscape:label="Image 1"
     style="opacity:1">
    <path
       id="path850"
       style="fill:#2f5682;fill-opacity:1;stroke:none;stroke-width:10.1777;stroke-linecap:round;stroke-linejoin:round"
       d="m 12.462891,13.605469 c -1.130488,0 -2.039063,0.910528 -2.039063,2.041015 v 45.632813 c 0,1.130487 0.908575,2.041018 2.039063,2.041015 H 38.992188 C 38.539631,62.971587 38.254209,62.545088 38.126953,61.935547 V 38.386719 A 13.478176,4.7072873 0 0 1 38.078123,38.103516 13.478176,4.7072873 0 0 1 48.23242,33.560547 V 15.646484 c 0,-1.130487 -0.908575,-2.041015 -2.039063,-2.041015 z m 3.265625,4.263672 h 27.636718 c 0.632147,0 1.140625,0.508478 1.140625,1.140625 v 12.568359 c 0,0.632147 -0.508478,1.140625 -1.140625,1.140625 H 15.728516 c -0.632147,0 -1.140625,-0.508478 -1.140625,-1.140625 V 19.009766 c 0,-0.632147 0.508478,-1.140625 1.140625,-1.140625 z m 37.126953,17.80664 a 12.125506,2.7927687 0 0 0 -12.125,2.792969 12.125506,2.7927687 0 0 0 1.248047,1.226562 c -0.168072,0.07859 -0.325075,0.157706 -0.460938,0.240235 a 12.125506,2.7927687 0 0 1 0.466797,-0.238281 12.125506,2.7927687 0 0 0 10.871094,1.564453 12.125506,2.7927687 0 0 0 12.125,-2.792969 12.125506,2.7927687 0 0 0 -12.125,-2.792969 z m -11.337891,4.259766 c -0.171653,0.104269 -0.318416,0.21246 -0.435547,0.322265 a 12.125506,2.7927687 0 0 1 0.435547,-0.322265 z m -0.435547,0.322265 c -0.113147,0.106072 -0.198972,0.213772 -0.257812,0.324219 a 12.125506,2.7927687 0 0 1 0.257812,-0.324219 z m -24.59375,-1.205078 h 5.496094 c 0.88632,0 1.599609,0.71329 1.599609,1.59961 0,0.88632 -0.713289,1.599609 -1.599609,1.599609 h -5.496094 c -0.88632,0 -1.599609,-0.713289 -1.599609,-1.599609 0,-0.88632 0.713289,-1.59961 1.599609,-1.59961 z m 10,0 h 5.496094 c 0.88632,0 1.599609,0.71329 1.599609,1.59961 0,0.88632 -0.713289,1.599609 -1.599609,1.599609 h -5.496094 c -0.88632,0 -1.599609,-0.713289 -1.599609,-1.599609 0,-0.88632 0.713289,-1.59961 1.599609,-1.59961 z m 37.800781,0.94336 a 12.125506,2.7927687 0 0 1 0.419922,0.341797 C 64.600372,40.221218 64.458793,40.10686 64.289062,39.996094 Z m 0.517579,0.460937 a 12.125506,2.7927687 0 0 1 0.06445,0.09766 c -0.01896,-0.0329 -0.04056,-0.06514 -0.06445,-0.09766 z m -23.990235,0.140625 c -0.0548,0.107763 -0.08597,0.216971 -0.08594,0.328125 a 12.125506,2.7927687 0 0 1 0.08594,-0.328125 z m -0.08594,0.328125 v 3.064453 c 0.0012,0.445462 0.457194,0.86668 1.263672,1.240235 -0.174374,0.08093 -0.336424,0.16292 -0.476563,0.248047 A 12.125506,2.7927687 0 0 1 42,45.232422 c 1.986706,0.91789 6.100353,1.548783 10.855469,1.548828 6.693564,-6.4e-5 12.120799,-1.249342 12.125,-2.791016 v -3.064453 a 12.125506,2.7927687 0 0 1 -12.125,2.792969 12.125506,2.7927687 0 0 1 -12.125,-2.792969 z m 0.787109,4.552735 c -0.171653,0.104269 -0.318416,0.21246 -0.435547,0.322265 a 12.125506,2.7927687 0 0 1 0.435547,-0.322265 z m -0.435547,0.322265 c -0.113147,0.106071 -0.198972,0.213772 -0.257812,0.324219 a 12.125506,2.7927687 0 0 1 0.257812,-0.324219 z m 23.8125,-5.203125 a 12.125506,2.7927687 0 0 1 0.03125,0.06641 c -0.009,-0.02224 -0.02002,-0.04432 -0.03125,-0.06641 z m 0.0586,0.152344 a 12.125506,2.7927687 0 0 1 0.01367,0.04102 c -0.0029,-0.01397 -0.0099,-0.0271 -0.01367,-0.04102 z m -0.664063,4.789062 a 12.125506,2.7927687 0 0 1 0.419922,0.341797 c -0.108615,-0.116673 -0.250191,-0.23103 -0.419922,-0.341797 z M 64.806641,46 a 12.125506,2.7927687 0 0 1 0.06445,0.09766 C 64.852136,46.064757 64.83053,46.03252 64.806641,46 Z m -23.990235,0.140625 c -0.0548,0.107763 -0.08597,0.216971 -0.08594,0.328125 a 12.125506,2.7927687 0 0 1 0.08594,-0.328125 z m -0.08594,0.328125 v 3.064453 c 0.0014,0.524221 0.642318,1.012653 1.734375,1.431641 -0.111297,0.04255 -0.216782,0.08687 -0.31836,0.130859 a 12.125506,2.7927687 0 0 1 0.332032,-0.125 c 2.122512,0.810282 5.968994,1.353474 10.376953,1.353516 6.693564,-6.4e-5 12.120799,-1.249342 12.125,-2.791016 V 46.46875 a 12.125506,2.7927687 0 0 1 -12.125,2.792969 12.125506,2.7927687 0 0 1 -12.125,-2.792969 z m 24.164062,-0.328125 a 12.125506,2.7927687 0 0 1 0.03125,0.06641 c -0.009,-0.02224 -0.02002,-0.04432 -0.03125,-0.06641 z m 0.05859,0.152344 a 12.125506,2.7927687 0 0 1 0.01367,0.04102 c -0.0029,-0.01397 -0.0099,-0.0271 -0.01367,-0.04102 z m -48.464844,0.386719 h 5.496094 c 0.88632,0 1.599609,0.713289 1.599609,1.599609 0,0.88632 -0.713289,1.599609 -1.599609,1.599609 h -5.496094 c -0.88632,0 -1.599609,-0.713289 -1.599609,-1.599609 0,-0.88632 0.713289,-1.59961 1.599609,-1.599609 z m 10,0 h 5.496094 c 0.88632,0 1.599609,0.713289 1.599609,1.599609 0,0.88632 -0.713289,1.599609 -1.599609,1.599609 h -5.496094 c -0.88632,0 -1.599609,-0.713289 -1.599609,-1.599609 0,-0.88632 0.713289,-1.59961 1.599609,-1.599609 z m 36.960938,4.367187 a 12.125506,2.7927687 0 0 1 0.197265,0.08398 c -0.06317,-0.02835 -0.130048,-0.05621 -0.197265,-0.08398 z m -21.34961,0.06836 c -0.218121,0.09637 -0.413241,0.1963 -0.582031,0.298828 a 12.125506,2.7927687 0 0 1 0.582031,-0.298828 z m -0.582031,0.298828 c -0.171653,0.10427 -0.318416,0.212461 -0.435547,0.322266 a 12.125506,2.7927687 0 0 1 0.435547,-0.322266 z m -0.435547,0.322266 c -0.113147,0.106071 -0.198972,0.213772 -0.257812,0.324219 a 12.125506,2.7927687 0 0 1 0.257812,-0.324219 z M 64.289055,51.47461 a 12.125506,2.7927687 0 0 1 0.419922,0.341797 C 64.600365,51.699734 64.458786,51.585376 64.289055,51.47461 Z m 0.517579,0.460938 a 12.125506,2.7927687 0 0 1 0.06445,0.09766 c -0.01896,-0.0329 -0.04056,-0.06514 -0.06445,-0.09766 z m -23.990235,0.140625 c -0.0548,0.107763 -0.08597,0.216971 -0.08594,0.328125 a 12.125506,2.7927687 0 0 1 0.08594,-0.328125 z m -0.08594,0.328125 v 3.064453 c 0.0012,0.44543 0.457303,0.864747 1.263672,1.238281 -0.174556,0.081 -0.336301,0.162846 -0.476563,0.248047 A 12.125506,2.7927687 0 0 1 42,56.710938 c 1.986903,0.91776 6.100766,1.548782 10.855469,1.548828 6.693564,-6.4e-5 12.120799,-1.249342 12.125,-2.791016 v -3.064453 a 12.125506,2.7927687 0 0 1 -12.125,2.792969 12.125506,2.7927687 0 0 1 -12.125,-2.792969 z m 0.787109,4.550781 c -0.171653,0.104269 -0.318416,0.212461 -0.435547,0.322266 a 12.125506,2.7927687 0 0 1 0.435547,-0.322266 z m -0.435547,0.322266 c -0.113147,0.106071 -0.198972,0.213772 -0.257812,0.324218 a 12.125506,2.7927687 0 0 1 0.257812,-0.324218 z m 23.8125,-5.201172 a 12.125506,2.7927687 0 0 1 0.03125,0.06641 c -0.009,-0.02224 -0.02002,-0.04432 -0.03125,-0.06641 z m 0.05859,0.152344 a 12.125506,2.7927687 0 0 1 0.01367,0.04102 c -0.0029,-0.01397 -0.0099,-0.0271 -0.01367,-0.04102 z m -48.464844,2.226562 h 5.496094 c 0.88632,0 1.599609,0.713287 1.599609,1.59961 0,0.886319 -0.713289,1.599609 -1.599609,1.599609 h -5.496094 c -0.88632,0 -1.599609,-0.71329 -1.599609,-1.599609 0,-0.886322 0.713289,-1.59961 1.599609,-1.59961 z m 10,0 h 5.496094 c 0.88632,0 1.599609,0.713287 1.599609,1.59961 0,0.886319 -0.713289,1.599609 -1.599609,1.599609 h -5.496094 c -0.88632,0 -1.599609,-0.71329 -1.599609,-1.599609 0,-0.886322 0.713289,-1.59961 1.599609,-1.59961 z m 37.800781,2.560547 a 12.125506,2.7927687 0 0 1 0.419922,0.341797 C 64.600358,57.24075 64.458779,57.126392 64.289048,57.015626 Z m 0.517579,0.460937 a 12.125506,2.7927687 0 0 1 0.06445,0.09766 c -0.01896,-0.0329 -0.04056,-0.06514 -0.06445,-0.09766 z m -23.990235,0.140626 c -0.0548,0.107762 -0.08597,0.21697 -0.08594,0.328124 a 12.125506,2.7927687 0 0 1 0.08594,-0.328124 z m -0.08594,0.328124 v 3.064454 c 0.0042,1.541674 5.431436,2.790951 12.125,2.791015 6.693564,-6.4e-5 12.120799,-1.249341 12.125,-2.791015 v -3.064454 a 12.125506,2.7927687 0 0 1 -12.125,2.792969 12.125506,2.7927687 0 0 1 -12.125,-2.792969 z m 24.164062,-0.328124 a 12.125506,2.7927687 0 0 1 0.03125,0.06641 c -0.009,-0.02224 -0.02002,-0.04432 -0.03125,-0.06641 z m 0.05859,0.152343 a 12.125506,2.7927687 0 0 1 0.01367,0.04102 c -0.0029,-0.01397 -0.0099,-0.0271 -0.01367,-0.04102 z" />
  </g>
</svg>
