<?xml version="1.0" encoding="UTF-8" standalone="no"?>
<!-- Created with Inkscape (http://www.inkscape.org/) -->

<svg
   version="1.1"
   id="svg2"
   width="614.40002"
   height="614.40002"
   viewBox="0 0 614.40002 614.40002"
   sodipodi:docname="request.png"
   inkscape:version="1.1.1 (eb90963e84, 2021-10-02)"
   xmlns:inkscape="http://www.inkscape.org/namespaces/inkscape"
   xmlns:sodipodi="http://sodipodi.sourceforge.net/DTD/sodipodi-0.dtd"
   xmlns="http://www.w3.org/2000/svg"
   xmlns:svg="http://www.w3.org/2000/svg">
  <defs
     id="defs6" />
  <sodipodi:namedview
     id="namedview4"
     pagecolor="#ffffff"
     bordercolor="#cccccc"
     borderopacity="1"
     inkscape:pageshadow="0"
     inkscape:pageopacity="1"
     inkscape:pagecheckerboard="0"
     showgrid="false"
     inkscape:zoom="0.81490145"
     inkscape:cx="371.8241"
     inkscape:cy="306.78556"
     inkscape:window-width="1366"
     inkscape:window-height="668"
     inkscape:window-x="0"
     inkscape:window-y="27"
     inkscape:window-maximized="1"
     inkscape:current-layer="layer1" />
  <g
     inkscape:groupmode="layer"
     id="layer1"
     inkscape:label="Image 1">
    <path
       id="rect850"
       style="opacity:1;fill:none;stroke:#2f5683;stroke-width:10;stroke-miterlimit:4;stroke-dasharray:none;stroke-opacity:1"
       d="m 115.78711,6.7441406 c -39.882776,0 -71.990235,32.1074584 -71.990235,71.9902344 V 534.24805 c 0,39.88277 32.107459,71.99023 71.990235,71.99023 h 190.70312 c 39.88278,0 71.99024,-32.10746 71.99024,-71.99023 V 290.10156 l -85.21875,45.0293 38.83203,-81.31836 A 139.66046,143.73788 0 0 1 287.69727,149.10156 139.66046,143.73788 0 0 1 355.57422,26.087891 C 342.72774,14.110777 325.52064,6.7441406 306.49023,6.7441406 Z" />
    <path
       id="path1172"
       style="opacity:1;fill:none;stroke:#2f5683;stroke-width:10;stroke-miterlimit:4;stroke-dasharray:none;stroke-opacity:1"
       d="M 427.35938,5.3632812 A 139.66046,143.73788 0 0 0 287.69727,149.10156 139.66046,143.73788 0 0 0 332.09375,253.8125 l -38.83203,81.31836 92.61133,-48.93555 a 139.66046,143.73788 0 0 0 41.48633,6.64453 A 139.66046,143.73788 0 0 0 567.01953,149.10156 139.66046,143.73788 0 0 0 427.35938,5.3632812 Z" />
    <circle
       style="opacity:1;fill:none;stroke:#2f5683;stroke-width:10;stroke-miterlimit:4;stroke-dasharray:none;stroke-opacity:1"
       id="path1213"
       cx="209.13867"
       cy="285.03372"
       r="58.856445" />
    <path
       id="circle1295"
       style="opacity:1;fill:none;stroke:#2f5683;stroke-width:10;stroke-miterlimit:4;stroke-dasharray:none;stroke-opacity:1"
       d="m 213.13867,380.39258 a 102.64152,102.64152 0 0 0 -101.67773,89.1543 h 203.40234 a 102.64152,102.64152 0 0 0 -101.72461,-89.1543 z" />
    <path
       style="fill:none;stroke:#2f5683;stroke-width:10;stroke-linecap:butt;stroke-linejoin:miter;stroke-miterlimit:4;stroke-dasharray:none;stroke-opacity:1"
       d="M 300.26049,89.29162 H 44.739817"
       id="path1435" />
    <path
       style="fill:none;stroke:#2f5683;stroke-width:10;stroke-linecap:butt;stroke-linejoin:miter;stroke-miterlimit:4;stroke-dasharray:none;stroke-opacity:1"
       d="M 43.933438,474.08399 H 377.23476"
       id="path1437" />
    <path
       style="fill:none;stroke:#2f5683;stroke-width:10;stroke-linecap:butt;stroke-linejoin:miter;stroke-miterlimit:4;stroke-dasharray:none;stroke-opacity:1"
       d="M 173.36642,542.29756 H 244.1063"
       id="path1439" />
    <path
       style="fill:none;stroke:#2f5683;stroke-width:10;stroke-linecap:butt;stroke-linejoin:round;stroke-miterlimit:4;stroke-dasharray:none;stroke-opacity:1"
       d="M 384.70973,223.85651 V 64.287098 L 475.20042,221.02158 V 62.639942"
       id="path1441"
       sodipodi:nodetypes="cccc" />
    <path
       style="fill:none;stroke:#2f5683;stroke-width:10;stroke-linecap:butt;stroke-linejoin:miter;stroke-miterlimit:4;stroke-dasharray:none;stroke-opacity:1"
       d="M 354.43567,120.61816 H 498.27174"
       id="path1823" />
    <path
       style="fill:none;stroke:#2f5683;stroke-width:10;stroke-linecap:butt;stroke-linejoin:miter;stroke-miterlimit:4;stroke-dasharray:none;stroke-opacity:1"
       d="M 354.43567,160.61816 H 498.27174"
       id="path1905" />
  </g>
</svg>
