<?xml version="1.0" encoding="UTF-8" standalone="no"?>
<!-- Created with Inkscape (http://www.inkscape.org/) -->

<svg
   width="400mm"
   height="400mm"
   viewBox="0 0 400 400"
   version="1.1"
   id="svg471"
   inkscape:version="1.2 (dc2aeda, 2022-05-15)"
   sodipodi:docname="ongoing.svg"
   xml:space="preserve"
   xmlns:inkscape="http://www.inkscape.org/namespaces/inkscape"
   xmlns:sodipodi="http://sodipodi.sourceforge.net/DTD/sodipodi-0.dtd"
   xmlns="http://www.w3.org/2000/svg"
   xmlns:svg="http://www.w3.org/2000/svg"><sodipodi:namedview
     id="namedview473"
     pagecolor="#505050"
     bordercolor="#eeeeee"
     borderopacity="1"
     inkscape:showpageshadow="0"
     inkscape:pageopacity="0"
     inkscape:pagecheckerboard="0"
     inkscape:deskcolor="#505050"
     inkscape:document-units="mm"
     showgrid="false"
     showguides="true"
     inkscape:zoom="0.2076422"
     inkscape:cx="1565.1924"
     inkscape:cy="782.5962"
     inkscape:window-width="1920"
     inkscape:window-height="1052"
     inkscape:window-x="0"
     inkscape:window-y="28"
     inkscape:window-maximized="0"
     inkscape:current-layer="layer1"><sodipodi:guide
       position="0,437.49259"
       orientation="1,0"
       id="guide592"
       inkscape:locked="false" /><sodipodi:guide
       position="399.63693,416.18998"
       orientation="1,0"
       id="guide594"
       inkscape:locked="false" /><sodipodi:guide
       position="434.57321,400"
       orientation="0,-1"
       id="guide596"
       inkscape:locked="false" /><sodipodi:guide
       position="424.34796,-0.48903988"
       orientation="0,-1"
       id="guide598"
       inkscape:locked="false" /><sodipodi:guide
       position="345.10226,199.75548"
       orientation="0,-1"
       id="guide600"
       inkscape:locked="false" /><sodipodi:guide
       position="200.10579,302.63911"
       orientation="1,0"
       id="guide602"
       inkscape:locked="false" /></sodipodi:namedview><defs
     id="defs468" /><g
     inkscape:label="Layer 1"
     inkscape:groupmode="layer"
     id="layer1"><path
       id="path682"
       style="fill:#ffa82e;stroke-width:0.489401;stroke-linejoin:bevel;paint-order:fill markers stroke;fill-opacity:1"
       d="M 199.80136,0.55285138 A 199.64223,199.64223 0 0 0 0.15919354,200.19502 199.64223,199.64223 0 0 0 199.80136,399.83718 199.64223,199.64223 0 0 0 399.44353,200.19502 199.64223,199.64223 0 0 0 199.80136,0.55285138 Z m 0,27.68111562 A 171.96075,171.96075 0 0 1 371.76241,200.19502 171.96075,171.96075 0 0 1 199.80136,372.15543 171.96075,171.96075 0 0 1 27.840941,200.19502 171.96075,171.96075 0 0 1 199.80136,28.233967 Z" /><path
       id="path26507"
       style="opacity:1;fill:#ffa82e;fill-opacity:1;stroke-width:0.577215;stroke-linejoin:bevel;paint-order:fill markers stroke"
       d="m 199.45966,101.03053 c -18.17452,0.0215 -35.99148,5.05247 -51.49298,14.54019 -18.94966,20.43864 11.31305,33.78757 19.76985,25.14214 9.75139,-5.24903 20.64877,-8.0071 31.72313,-8.02897 27.21998,0.002 51.25744,16.33523 61.70683,40.57323 l -19.82515,5.34025 c -2.41164,0.64962 -5.6206,2.56466 -1.40973,6.81509 l 50.05379,50.52404 c 2.32167,2.34348 6.24334,7.19166 8.69508,-2.35024 l 17.38963,-67.67856 c 1.65368,-6.43593 -0.49687,-7.30551 -4.93458,-6.11022 l -19.19728,5.17075 c -14.36133,-38.09274 -50.98044,-63.9341 -92.47859,-63.9377 z"
       sodipodi:nodetypes="cccccsssssscc" /><path
       id="path27320"
       style="opacity:1;fill:#ffa82e;fill-opacity:1;stroke-width:0.577215;stroke-linejoin:bevel;paint-order:fill markers stroke"
       d="m 201.25023,299.46585 c 18.17452,-0.0215 35.99148,-5.05247 51.49298,-14.54019 18.94966,-20.43864 -11.31305,-33.78757 -19.76985,-25.14214 -9.75139,5.24903 -20.64877,8.0071 -31.72313,8.02897 -27.21998,-0.002 -51.25744,-16.33523 -61.70683,-40.57323 l 19.82515,-5.34025 c 2.41164,-0.64962 5.6206,-2.56466 1.40973,-6.81509 l -50.05379,-50.52404 c -2.32167,-2.34348 -6.24334,-7.19166 -8.69508,2.35024 l -17.389635,67.67856 c -1.65368,6.43593 0.49687,7.30551 4.93458,6.11022 l 19.197285,-5.17075 c 14.36133,38.09274 50.98044,63.9341 92.47859,63.9377 z"
       sodipodi:nodetypes="cccccsssssscc" /></g></svg>
