<?xml version="1.0" encoding="UTF-8" standalone="no"?>
<!-- Created with Inkscape (http://www.inkscape.org/) -->

<svg
   width="800"
   height="800"
   viewBox="0 0 211.66667 211.66667"
   version="1.1"
   id="svg5"
   inkscape:version="1.2 (dc2aeda, 2022-05-15)"
   sodipodi:docname="promonLogo.svg"
   xmlns:inkscape="http://www.inkscape.org/namespaces/inkscape"
   xmlns:sodipodi="http://sodipodi.sourceforge.net/DTD/sodipodi-0.dtd"
   xmlns="http://www.w3.org/2000/svg"
   xmlns:svg="http://www.w3.org/2000/svg">
  <sodipodi:namedview
     id="namedview7"
     pagecolor="#ffffff"
     bordercolor="#eeeeee"
     borderopacity="1"
     inkscape:showpageshadow="0"
     inkscape:pageopacity="1"
     inkscape:pagecheckerboard="0"
     inkscape:deskcolor="#505050"
     inkscape:document-units="mm"
     showgrid="false"
     inkscape:zoom="1.4341686"
     inkscape:cx="354.21218"
     inkscape:cy="260.42962"
     inkscape:window-width="1440"
     inkscape:window-height="900"
     inkscape:window-x="1920"
     inkscape:window-y="0"
     inkscape:window-maximized="0"
     inkscape:current-layer="layer1"
     showguides="true">
    <sodipodi:guide
       position="-0.71351608,220.22886"
       orientation="1,0"
       id="guide1777"
       inkscape:locked="false" />
    <sodipodi:guide
       position="212.62779,209.52612"
       orientation="1,0"
       id="guide1779"
       inkscape:locked="false" />
    <sodipodi:guide
       position="188.36825,211.66667"
       orientation="0,-1"
       id="guide1781"
       inkscape:locked="false" />
    <sodipodi:guide
       position="219.04944,0.46590951"
       orientation="0,-1"
       id="guide1783"
       inkscape:locked="false" />
    <sodipodi:guide
       position="47.117048,69.48405"
       orientation="1,0"
       id="guide2326"
       inkscape:locked="false" />
    <sodipodi:guide
       position="157.42637,58.952004"
       orientation="1,0"
       id="guide2328"
       inkscape:locked="false" />
    <sodipodi:guide
       position="120.00989,154.29474"
       orientation="0,-1"
       id="guide2349"
       inkscape:locked="false" />
  </sodipodi:namedview>
  <defs
     id="defs2">
    <filter
       inkscape:collect="always"
       style="color-interpolation-filters:sRGB"
       id="filter2559"
       x="-0.10688867"
       y="-2.515995"
       width="1.2137773"
       height="6.03199">
      <feGaussianBlur
         inkscape:collect="always"
         stdDeviation="4.9307508"
         id="feGaussianBlur2561" />
    </filter>
  </defs>
  <g
     inkscape:label="Layer 1"
     inkscape:groupmode="layer"
     id="layer1">
    <path
       id="path308"
       style="fill:#f57c00;fill-opacity:1;stroke-width:0.946538;stroke-linejoin:bevel;paint-order:fill markers stroke"
       d="M 110.68678 111.61231 A 27.964014 27.964014 0 0 1 110.17725 111.4516 A 27.964014 27.964014 0 0 1 107.92365 110.51832 A 27.964014 27.964014 0 0 1 105.75995 109.39177 A 27.964014 27.964014 0 0 1 103.7022 108.08126 A 27.964014 27.964014 0 0 1 102.21082 106.93663 A 27.964014 27.964014 0 0 1 93.734847 111.61283 A 37.110264 37.110264 0 0 0 94.500175 112.37815 A 37.110264 37.110264 0 0 0 96.603923 114.18838 A 37.110264 37.110264 0 0 0 98.836861 115.83634 A 37.110264 37.110264 0 0 0 101.18659 117.31274 A 37.110264 37.110264 0 0 0 102.21082 117.85379 A 37.110264 37.110264 0 0 0 110.68678 111.61231 z " />
    <path
       id="circle1049"
       style="fill:#424242;fill-opacity:1;stroke-width:0.946538;stroke-linejoin:bevel;paint-order:fill markers stroke"
       d="M 119.74153,48.06425 A 37.110264,37.110264 0 0 0 82.631132,85.174646 37.110264,37.110264 0 0 0 119.74153,122.28453 37.110264,37.110264 0 0 0 156.85192,85.174646 37.110264,37.110264 0 0 0 119.74153,48.06425 Z m 0,9.146211 A 27.964014,27.964014 0 0 1 147.70571,85.174646 27.964014,27.964014 0 0 1 119.74153,113.13831 27.964014,27.964014 0 0 1 91.777861,85.174646 27.964014,27.964014 0 0 1 119.74153,57.210461 Z" />
    <g
       aria-label="PROMON"
       id="text1849"
       style="font-size:25.4px;font-family:Helvetica;-inkscape-font-specification:Helvetica;text-align:justify;fill:#f57c00;stroke-width:1.3;stroke-linejoin:bevel;paint-order:fill markers stroke"
       transform="translate(0,-25.92917)">
      <path
         d="m 54.650144,164.67061 h -3.881933 v 6.57324 H 46.973093 V 152.9628 h 7.962305 q 2.75332,0 4.39043,1.41386 1.637109,1.41387 1.637109,4.37803 0,3.23701 -1.637109,4.57647 -1.63711,1.33945 -4.675684,1.33945 z m 1.785938,-3.80752 q 0.74414,-0.65733 0.74414,-2.08359 0,-1.42627 -0.756543,-2.03399 -0.74414,-0.60771 -2.095996,-0.60771 h -3.559472 v 5.38261 h 3.559472 q 1.351856,0 2.108399,-0.65732 z"
         style="font-weight:bold"
         id="path2279" />
      <path
         d="M 71.591745,164.0753 H 67.6478 v 7.16855 H 63.914694 V 152.9628 h 8.966895 q 1.922363,0.0372 2.951757,0.47129 1.041797,0.43408 1.761133,1.27744 0.595313,0.69453 0.942578,1.53789 0.347266,0.84336 0.347266,1.92236 0,1.30225 -0.657324,2.56729 -0.657325,1.25263 -2.17041,1.77353 1.265039,0.5085 1.785937,1.45108 0.533301,0.93017 0.533301,2.85253 v 1.22784 q 0,1.25263 0.09922,1.69912 0.148828,0.70693 0.694531,1.04179 v 0.45889 h -4.204395 q -0.173633,-0.60771 -0.248047,-0.97978 -0.148828,-0.76895 -0.16123,-1.5751 l -0.02481,-1.69912 q -0.0248,-1.74873 -0.644922,-2.33164 -0.607714,-0.58291 -2.294433,-0.58291 z m 2.319238,-3.32383 q 1.141016,-0.5209 1.141016,-2.05879 0,-1.66192 -1.103809,-2.23242 -0.620117,-0.32246 -1.860351,-0.32246 H 67.6478 v 4.91132 h 4.328417 q 1.289844,0 1.934766,-0.29765 z"
         style="font-weight:bold;fill:#424242;fill-opacity:1"
         id="path2281" />
      <path
         d="m 90.257273,171.75235 q -3.919141,0 -5.990332,-2.13321 -2.778125,-2.61689 -2.778125,-7.54062 0,-5.02295 2.778125,-7.54063 2.071191,-2.1332 5.990332,-2.1332 3.919141,0 5.990332,2.1332 2.765723,2.51768 2.765723,7.54063 0,4.92373 -2.765723,7.54062 -2.071191,2.13321 -5.990332,2.13321 z m 3.609082,-4.91133 q 1.327051,-1.67432 1.327051,-4.7625 0,-3.07578 -1.339453,-4.7501 -1.327051,-1.68672 -3.59668,-1.68672 -2.269629,0 -3.621484,1.67432 -1.351856,1.67432 -1.351856,4.7625 0,3.08818 1.351856,4.7625 1.351855,1.67432 3.621484,1.67432 2.269629,0 3.609082,-1.67432 z"
         style="font-weight:bold;fill:#424242;fill-opacity:1"
         id="path2283" />
      <path
         d="m 105.42534,171.24385 h -3.55948 V 152.9628 h 5.55625 l 3.32383,14.37431 3.29903,-14.37431 h 5.49423 v 18.28105 h -3.55947 v -12.36514 q 0,-0.5333 0.0124,-1.48828 0.0124,-0.96738 0.0124,-1.48828 l -3.46026,15.3417 h -3.7083 l -3.43545,-15.3417 q 0,0.5209 0.0124,1.48828 0.0124,0.95498 0.0124,1.48828 z"
         style="font-weight:bold;fill:#f57c00;fill-opacity:1"
         id="path2285" />
      <path
         d="m 131.1726,171.75235 q -3.91914,0 -5.99033,-2.13321 -2.77812,-2.61689 -2.77812,-7.54062 0,-5.02295 2.77812,-7.54063 2.07119,-2.1332 5.99033,-2.1332 3.91914,0 5.99033,2.1332 2.76573,2.51768 2.76573,7.54063 0,4.92373 -2.76573,7.54062 -2.07119,2.13321 -5.99033,2.13321 z m 3.60908,-4.91133 q 1.32705,-1.67432 1.32705,-4.7625 0,-3.07578 -1.33945,-4.7501 -1.32705,-1.68672 -3.59668,-1.68672 -2.26963,0 -3.62148,1.67432 -1.35186,1.67432 -1.35186,4.7625 0,3.08818 1.35186,4.7625 1.35185,1.67432 3.62148,1.67432 2.26963,0 3.60908,-1.67432 z"
         style="font-weight:bold;fill:#424242;fill-opacity:1"
         id="path2287" />
      <path
         d="m 157.6268,171.24385 h -3.81992 l -7.46621,-12.98525 v 12.98525 H 142.7812 V 152.9628 h 4.00595 l 7.28018,12.76201 V 152.9628 h 3.55947 z"
         style="font-weight:bold;fill:#424242;fill-opacity:1"
         id="path2289" />
    </g>
    <ellipse
       style="fill:#999999;fill-opacity:1;stroke-width:1.3;stroke-linejoin:bevel;paint-order:fill markers stroke;stroke:none;filter:url(#filter2559)"
       id="path2505"
       cx="102.39001"
       cy="154.67044"
       rx="55.355736"
       ry="2.3517141" />
    <path
       id="path2427"
       style="fill:#f57c00;fill-opacity:1;stroke-width:0.946538;stroke-linejoin:bevel;paint-order:fill markers stroke"
       d="M 84.679586 48.06425 A 37.110264 37.110264 0 0 0 47.569189 85.174646 A 37.110264 37.110264 0 0 0 84.679586 122.28453 A 37.110264 37.110264 0 0 0 102.21082 117.85379 A 37.110264 37.110264 0 0 1 101.18659 117.31274 A 37.110264 37.110264 0 0 1 98.836861 115.83634 A 37.110264 37.110264 0 0 1 96.603923 114.18838 A 37.110264 37.110264 0 0 1 94.500175 112.37815 A 37.110264 37.110264 0 0 1 93.734847 111.61283 A 27.964014 27.964014 0 0 1 84.679586 113.13831 A 27.964014 27.964014 0 0 1 56.715401 85.174646 A 27.964014 27.964014 0 0 1 84.679586 57.210461 A 27.964014 27.964014 0 0 1 93.747766 58.723031 C 96.824133 59.777635 99.692987 61.360791 102.22528 63.401298 C 108.81292 68.709433 112.64334 76.714553 112.64377 85.174646 C 112.63677 93.633181 108.80076 101.63384 102.21082 106.93663 C 102.69497 107.33477 103.19238 107.71654 103.7022 108.08126 C 104.36873 108.54782 105.0553 108.98508 105.75995 109.39177 C 106.46445 109.79858 107.18637 110.17446 107.92365 110.51832 C 108.66091 110.86204 109.41283 111.17343 110.17725 111.4516 C 110.34658 111.50679 110.51643 111.56036 110.68678 111.61231 C 117.78054 104.64334 121.78058 95.118882 121.78998 85.174646 C 121.78934 75.231147 117.79827 65.703818 110.71159 58.728715 C 108.19755 56.254058 105.34351 54.150493 102.23562 52.481551 A 37.110264 37.110264 0 0 0 84.679586 48.06425 z " />
  </g>
</svg>
