<?xml version="1.0" encoding="UTF-8" standalone="no"?>
<!-- Created with Inkscape (http://www.inkscape.org/) -->

<svg
   width="400mm"
   height="400mm"
   viewBox="0 0 400 400"
   version="1.1"
   id="svg471"
   inkscape:version="1.2 (dc2aeda, 2022-05-15)"
   sodipodi:docname="total.svg"
   xml:space="preserve"
   xmlns:inkscape="http://www.inkscape.org/namespaces/inkscape"
   xmlns:sodipodi="http://sodipodi.sourceforge.net/DTD/sodipodi-0.dtd"
   xmlns="http://www.w3.org/2000/svg"
   xmlns:svg="http://www.w3.org/2000/svg"><sodipodi:namedview
     id="namedview473"
     pagecolor="#505050"
     bordercolor="#eeeeee"
     borderopacity="1"
     inkscape:showpageshadow="0"
     inkscape:pageopacity="0"
     inkscape:pagecheckerboard="0"
     inkscape:deskcolor="#505050"
     inkscape:document-units="mm"
     showgrid="false"
     showguides="true"
     inkscape:zoom="0.51953106"
     inkscape:cx="806.49654"
     inkscape:cy="790.13563"
     inkscape:window-width="1440"
     inkscape:window-height="872"
     inkscape:window-x="1920"
     inkscape:window-y="28"
     inkscape:window-maximized="0"
     inkscape:current-layer="layer1"><sodipodi:guide
       position="0,437.49259"
       orientation="1,0"
       id="guide592"
       inkscape:locked="false" /><sodipodi:guide
       position="399.63693,416.18998"
       orientation="1,0"
       id="guide594"
       inkscape:locked="false" /><sodipodi:guide
       position="434.57321,400"
       orientation="0,-1"
       id="guide596"
       inkscape:locked="false" /><sodipodi:guide
       position="424.34796,-0.48903988"
       orientation="0,-1"
       id="guide598"
       inkscape:locked="false" /><sodipodi:guide
       position="345.10226,199.75548"
       orientation="0,-1"
       id="guide600"
       inkscape:locked="false" /><sodipodi:guide
       position="200.10579,302.63911"
       orientation="1,0"
       id="guide602"
       inkscape:locked="false" /></sodipodi:namedview><defs
     id="defs468" /><g
     inkscape:label="Layer 1"
     inkscape:groupmode="layer"
     id="layer1"><path
       id="path682"
       style="fill:#ffa82e;stroke-width:0.489401;stroke-linejoin:bevel;paint-order:fill markers stroke;fill-opacity:1"
       d="M 199.80136,0.55285138 C 89.54205,0.55288647 0.15922744,89.93571 0.15919354,200.19502 0.1592322,310.45433 89.542053,399.83714 199.80136,399.83718 310.06067,399.83715 399.44349,310.45433 399.44353,200.19502 399.4435,89.935708 310.06067,0.55288452 199.80136,0.55285138 Z m 0,27.68111562 C 294.7729,28.233801 371.76258,105.22348 371.76241,200.19502 371.76222,295.1663 294.77264,372.1556 199.80136,372.15543 104.83032,372.15525 27.841129,295.16606 27.840941,200.19502 27.840774,105.22373 104.83007,28.23415 199.80136,28.233967 Z"
       sodipodi:nodetypes="ccsscsssss" /><path
       id="rect1152"
       style="fill:#ffa82e;fill-opacity:1;stroke-width:0.4;stroke-linejoin:bevel;paint-order:fill markers stroke"
       d="M 182.74595 69.389046 C 168.88136 69.389216 157.64194 80.628856 157.64206 94.493457 C 157.64406 94.555307 157.64629 94.617144 157.64929 94.678975 L 111.34824 94.678975 C 101.37502 94.678975 93.345723 102.70776 93.345723 112.68098 L 93.345723 307.37297 C 93.345723 317.34618 101.37502 325.37497 111.34824 325.37497 L 254.03307 325.37497 C 264.00628 325.37497 272.03559 317.34618 272.03559 307.37297 L 272.03559 300.18684 L 272.03559 112.68098 C 272.03559 102.70776 264.00628 94.678975 254.03307 94.678975 L 207.84416 94.678975 C 207.84616 94.617145 207.8494 94.555304 207.8514 94.493457 C 207.85152 80.628653 196.61178 69.388928 182.74698 69.389046 L 182.74595 69.389046 z M 182.74595 83.492578 C 188.82161 83.492487 193.74692 88.417813 193.74683 94.493457 C 193.74664 100.56889 188.8214 105.49391 182.74595 105.49382 C 176.67072 105.49362 171.74578 100.56869 171.74559 94.493457 C 171.7455 88.418016 176.67052 83.492774 182.74595 83.492578 z M 119.5989 119.59838 L 141.02447 119.59838 C 141.02442 119.61418 141.02343 119.62971 141.02343 119.64541 C 141.02343 127.47714 147.32831 133.78201 155.16004 133.78201 L 212.74154 133.78201 C 220.57327 133.78201 226.87866 127.47714 226.87866 119.64541 C 226.87866 119.62961 226.87762 119.61408 226.87762 119.59838 L 246.90069 119.59838 L 246.90069 300.18684 L 191.9888 300.18684 L 191.9888 299.60445 L 119.5989 299.60445 L 119.5989 119.59838 z M 139.82609 163.7652 L 139.82609 195.04908 L 171.10997 195.04908 L 171.10997 163.7652 L 139.82609 163.7652 z M 147.71501 171.65412 L 163.22104 171.65412 L 163.22104 187.16015 L 147.71501 187.16015 L 147.71501 171.65412 z M 173.15274 186.92296 L 173.15274 194.56228 L 237.83044 194.56228 L 237.83044 186.92296 L 173.15274 186.92296 z M 139.82609 208.54696 L 139.82609 239.83084 L 171.10997 239.83084 L 171.10997 208.54696 L 139.82609 208.54696 z M 147.71501 216.43588 L 163.22104 216.43588 L 163.22104 231.94191 L 147.71501 231.94191 L 147.71501 216.43588 z M 173.15274 231.22981 L 173.15274 238.86914 L 237.83044 238.86914 L 237.83044 231.22981 L 173.15274 231.22981 z M 139.82609 253.43259 L 139.82609 284.71647 L 171.10997 284.71647 L 171.10997 253.43259 L 139.82609 253.43259 z M 147.71501 261.32152 L 163.22104 261.32152 L 163.22104 276.82755 L 147.71501 276.82755 L 147.71501 261.32152 z M 173.15274 276.55521 L 173.15274 284.19454 L 237.83044 284.19454 L 237.83044 276.55521 L 173.15274 276.55521 z " /></g></svg>
